<svg width="25" height="25" viewBox="0 0 20 20" fill="none" xmlns="http://www.w3.org/2000/svg">
<g opacity="0.5">
<path fill-rule="evenodd" clip-rule="evenodd" d="M13.6757 2.30702L13.6766 2.93171C15.9721 3.11162 17.4885 4.67583 17.4909 7.07463L17.5 14.0961C17.5033 16.7115 15.8602 18.3207 13.2265 18.3248L6.79324 18.3332C4.17599 18.3365 2.51235 16.689 2.50906 14.0661L2.50001 7.1271C2.49671 4.71248 3.95961 3.15243 6.25514 2.9417L6.25432 2.31701C6.2535 1.95053 6.52501 1.67483 6.88703 1.67483C7.24905 1.674 7.52057 1.94886 7.52139 2.31535L7.52221 2.89839L12.4095 2.89173L12.4087 2.30868C12.4078 1.9422 12.6794 1.66734 13.0414 1.66651C13.3952 1.66567 13.6749 1.94054 13.6757 2.30702ZM3.7679 7.38447L16.2247 7.36782V7.0763C16.1893 5.28553 15.2908 4.346 13.6782 4.20607L13.679 4.84741C13.679 5.20557 13.4001 5.48959 13.0463 5.48959C12.6843 5.49042 12.412 5.20723 12.412 4.84908L12.4111 4.17442L7.52386 4.18108L7.52468 4.85491C7.52468 5.2139 7.25399 5.49709 6.89197 5.49709C6.52995 5.49792 6.25761 5.21556 6.25761 4.85657L6.25679 4.21523C4.65238 4.37598 3.76461 5.31884 3.76708 7.12544L3.7679 7.38447ZM12.6999 11.1701V11.1792C12.7082 11.5624 13.0208 11.8531 13.4001 11.8447C13.7704 11.8356 14.0657 11.5182 14.0575 11.1351C14.0402 10.7686 13.7432 10.4696 13.3738 10.4704C12.9953 10.4788 12.6991 10.7869 12.6999 11.1701ZM13.3795 14.9099C13.0011 14.9015 12.6958 14.5859 12.695 14.2027C12.6868 13.8196 12.9904 13.5022 13.3688 13.4931H13.3771C13.7638 13.4931 14.0772 13.8088 14.0772 14.2002C14.0781 14.5917 13.7654 14.909 13.3795 14.9099ZM9.3101 11.1834C9.32655 11.5665 9.64003 11.8656 10.0185 11.8489C10.3888 11.8314 10.6841 11.5149 10.6677 11.1318C10.6586 10.757 10.3542 10.4654 9.98395 10.4663C9.60547 10.4829 9.30928 10.8003 9.3101 11.1834ZM10.0218 14.8724C9.64332 14.8891 9.33067 14.59 9.31339 14.2069C9.31339 13.8238 9.60877 13.5072 9.98724 13.4898C10.3575 13.4889 10.6627 13.7804 10.671 14.1544C10.6882 14.5384 10.392 14.8549 10.0218 14.8724ZM5.92027 11.2126C5.93673 11.5957 6.2502 11.8955 6.62868 11.8781C6.99893 11.8614 7.2943 11.5441 7.27703 11.1609C7.2688 10.7861 6.96437 10.4946 6.5933 10.4954C6.21483 10.5121 5.91945 10.8294 5.92027 11.2126ZM6.63197 14.8766C6.2535 14.894 5.94084 14.5942 5.92356 14.2111C5.92274 13.8279 6.21894 13.5106 6.59741 13.4939C6.96766 13.4931 7.27291 13.7846 7.28114 14.1594C7.29842 14.5426 7.00304 14.8599 6.63197 14.8766Z" fill="#3D3C42"/>
</g>
</svg>
