
<svg width="20" height="20" viewBox="0 0 20 20" fill="none" xmlns="http://www.w3.org/2000/svg">
<path fill-rule="evenodd" clip-rule="evenodd" d="M10.0003 2.29102C14.257 2.29102 17.7087 5.74268 17.7087 9.99935C17.7087 14.256 14.257 17.7077 10.0003 17.7077C5.74283 17.7077 2.29199 14.256 2.29199 9.99935C2.29199 5.74268 5.74283 2.29102 10.0003 2.29102Z" stroke="#200E32" stroke-width="1.5" stroke-linecap="round" stroke-linejoin="round"/>
<path d="M6.26738 10.9978C5.71654 10.9978 5.26904 10.5503 5.26904 10.0003C5.26904 9.45029 5.71654 9.00195 6.26738 9.00195C6.81821 9.00195 7.26571 9.45029 7.26571 10.0003C7.26571 10.5503 6.81821 10.9978 6.26738 10.9978Z" fill="#200E32"/>
<path d="M10.0003 10.9978C9.44945 10.9978 9.00195 10.5503 9.00195 10.0003C9.00195 9.45029 9.44945 9.00195 10.0003 9.00195C10.5511 9.00195 10.9986 9.45029 10.9986 10.0003C10.9986 10.5503 10.5511 10.9978 10.0003 10.9978Z" fill="#200E32"/>
<path d="M13.7327 10.9978C13.1819 10.9978 12.7344 10.5503 12.7344 10.0003C12.7344 9.45029 13.1819 9.00195 13.7327 9.00195C14.2835 9.00195 14.731 9.45029 14.731 10.0003C14.731 10.5503 14.2835 10.9978 13.7327 10.9978Z" fill="#200E32"/>
</svg>
