<svg width="42" height="42" viewBox="0 0 42 42" fill="none" xmlns="http://www.w3.org/2000/svg">
<path d="M16.0305 19.023C15.8555 19.0055 15.6455 19.0055 15.453 19.023C11.288 18.883 7.98047 15.4705 7.98047 11.2705C7.98047 6.98299 11.4455 3.50049 15.7505 3.50049C20.038 3.50049 23.5205 6.98299 23.5205 11.2705C23.503 15.4705 20.1955 18.883 16.0305 19.023Z" stroke="#00AC4F" stroke-width="2.625" stroke-linecap="round" stroke-linejoin="round"/>
<path d="M28.7168 6.99951C32.1118 6.99951 34.8418 9.74701 34.8418 13.1245C34.8418 16.432 32.2168 19.127 28.9443 19.2495C28.8043 19.232 28.6468 19.232 28.4893 19.2495" stroke="#00AC4F" stroke-width="2.625" stroke-linecap="round" stroke-linejoin="round"/>
<path d="M7.28074 25.4795C3.04574 28.3145 3.04574 32.9345 7.28074 35.752C12.0932 38.972 19.9857 38.972 24.7982 35.752C29.0332 32.917 29.0332 28.297 24.7982 25.4795C20.0032 22.277 12.1107 22.277 7.28074 25.4795Z" stroke="#00AC4F" stroke-width="2.625" stroke-linecap="round" stroke-linejoin="round"/>
<path d="M32.0947 35.0005C33.3547 34.738 34.5447 34.2305 35.5247 33.478C38.2547 31.4305 38.2547 28.053 35.5247 26.0055C34.5622 25.2705 33.3897 24.7805 32.1472 24.5005" stroke="#00AC4F" stroke-width="2.625" stroke-linecap="round" stroke-linejoin="round"/>
</svg>
