
<svg width="14" height="12" viewBox="0 0 14 12" fill="none" xmlns="http://www.w3.org/2000/svg">
<path opacity="0.4" fill-rule="evenodd" clip-rule="evenodd" d="M11.0156 1.83263C12.2107 2.75511 13.2283 4.10657 13.959 5.79675C14.0137 5.92505 14.0137 6.07506 13.959 6.19724C12.4976 9.5776 9.89561 11.6004 7 11.6004H6.99317C4.10439 11.6004 1.50244 9.5776 0.0409756 6.19724C-0.0136585 6.07506 -0.0136585 5.92505 0.0409756 5.79675C1.50244 2.41571 4.10439 0.400391 6.99317 0.400391H7C8.4478 0.400391 9.82049 0.902694 11.0156 1.83263ZM4.2683 6.00031C4.2683 7.49364 5.49074 8.70867 7.00001 8.70867C8.50245 8.70867 9.72489 7.49364 9.72489 6.00031C9.72489 4.50019 8.50245 3.28516 7.00001 3.28516C5.49074 3.28516 4.2683 4.50019 4.2683 6.00031Z" fill="white"/>
<path d="M8.70175 5.9997C8.70175 6.92964 7.93687 7.68989 7.00126 7.68989C6.05882 7.68989 5.29395 6.92964 5.29395 5.9997C5.29395 5.88431 5.3076 5.77638 5.32809 5.66778H5.36224C6.12029 5.66778 6.73492 5.07044 6.76224 4.3231C6.83736 4.3102 6.91931 4.30273 7.00126 4.30273C7.93687 4.30273 8.70175 5.06298 8.70175 5.9997Z" fill="white"/>
</svg>
