<svg width="20" height="20" viewBox="0 0 20 20" fill="none" xmlns="http://www.w3.org/2000/svg">
<g opacity="0.5">
<path fill-rule="evenodd" clip-rule="evenodd" d="M13.6757 2.30848L13.6766 2.93317C15.9721 3.11308 17.4885 4.6773 17.4909 7.0761L17.5 14.0976C17.5033 16.7129 15.8602 18.3221 13.2265 18.3263L6.79324 18.3346C4.17599 18.338 2.51235 16.6904 2.50906 14.0676L2.50001 7.12857C2.49671 4.71395 3.95961 3.15389 6.25514 2.94317L6.25432 2.31848C6.2535 1.952 6.52501 1.6763 6.88703 1.6763C7.24905 1.67547 7.52057 1.95033 7.52139 2.31681L7.52221 2.89985L12.4095 2.89319L12.4087 2.31015C12.4078 1.94367 12.6794 1.6688 13.0414 1.66797C13.3952 1.66714 13.6749 1.942 13.6757 2.30848ZM3.7679 7.38594L16.2247 7.36928V7.07776C16.1893 5.28699 15.2908 4.34746 13.6782 4.20753L13.679 4.84888C13.679 5.20703 13.4001 5.49106 13.0463 5.49106C12.6843 5.49189 12.412 5.2087 12.412 4.85054L12.4111 4.17588L7.52386 4.18254L7.52468 4.85637C7.52468 5.21536 7.25399 5.49855 6.89197 5.49855C6.52995 5.49938 6.25761 5.21703 6.25761 4.85804L6.25679 4.21669C4.65238 4.37745 3.76461 5.32031 3.76708 7.1269L3.7679 7.38594ZM12.6999 11.1715V11.1807C12.7082 11.5638 13.0208 11.8545 13.4001 11.8462C13.7704 11.837 14.0657 11.5197 14.0575 11.1366C14.0402 10.7701 13.7432 10.4711 13.3738 10.4719C12.9953 10.4802 12.6991 10.7884 12.6999 11.1715ZM13.3795 14.9113C13.0011 14.903 12.6958 14.5873 12.695 14.2042C12.6868 13.8211 12.9904 13.5037 13.3688 13.4945H13.3771C13.7638 13.4945 14.0772 13.8102 14.0772 14.2017C14.0781 14.5932 13.7654 14.9105 13.3795 14.9113ZM9.3101 11.1849C9.32655 11.568 9.64003 11.867 10.0185 11.8504C10.3888 11.8329 10.6841 11.5164 10.6677 11.1332C10.6586 10.7584 10.3542 10.4669 9.98395 10.4677C9.60547 10.4844 9.30928 10.8017 9.3101 11.1849ZM10.0218 14.8739C9.64332 14.8905 9.33067 14.5915 9.31339 14.2084C9.31339 13.8252 9.60877 13.5087 9.98724 13.4912C10.3575 13.4904 10.6627 13.7819 10.671 14.1559C10.6882 14.5399 10.392 14.8564 10.0218 14.8739ZM5.92027 11.214C5.93673 11.5972 6.2502 11.897 6.62868 11.8795C6.99893 11.8629 7.2943 11.5455 7.27703 11.1624C7.2688 10.7876 6.96437 10.496 6.5933 10.4969C6.21483 10.5135 5.91945 10.8309 5.92027 11.214ZM6.63197 14.878C6.2535 14.8955 5.94084 14.5957 5.92356 14.2125C5.92274 13.8294 6.21894 13.512 6.59741 13.4954C6.96766 13.4945 7.27291 13.7861 7.28114 14.1609C7.29842 14.544 7.00304 14.8614 6.63197 14.878Z" fill="#3D3C42"/>
</g>
</svg>
