<svg width="40" height="40" viewBox="0 0 40 40" fill="none" xmlns="http://www.w3.org/2000/svg">
<path d="M24.0664 31.7482L26.5997 34.2815L31.6664 29.2148" stroke="#00AC4F" stroke-width="2.5" stroke-linecap="round" stroke-linejoin="round"/>
<path d="M20.2673 18.1154C20.1006 18.0987 19.9006 18.0987 19.7173 18.1154C15.7506 17.982 12.6006 14.732 12.6006 10.732C12.584 6.6487 15.9006 3.33203 19.984 3.33203C24.0673 3.33203 27.384 6.6487 27.384 10.732C27.384 14.732 24.2173 17.982 20.2673 18.1154Z" stroke="#00AC4F" stroke-width="2.5" stroke-linecap="round" stroke-linejoin="round"/>
<path d="M19.9834 36.3482C16.9501 36.3482 13.9334 35.5815 11.6334 34.0482C7.60007 31.3482 7.60007 26.9482 11.6334 24.2648C16.2167 21.1982 23.7334 21.1982 28.3167 24.2648" stroke="#00AC4F" stroke-width="2.5" stroke-linecap="round" stroke-linejoin="round"/>
</svg>
