<svg width="18" height="18" viewBox="0 0 18 18" fill="none" xmlns="http://www.w3.org/2000/svg">
<path d="M9.10611 4.94242C8.93061 5.0371 8.8212 5.21713 8.8212 5.41295V8.46203H2.80072C2.49672 8.46203 2.25 8.70303 2.25 8.99998C2.25 9.29693 2.49672 9.53793 2.80072 9.53793H8.8212V12.587C8.8212 12.7835 8.93061 12.9636 9.10611 13.0575C9.2816 13.1529 9.49602 13.1465 9.66564 13.0425L15.493 9.45544C15.6531 9.35646 15.75 9.18503 15.75 8.99998C15.75 8.81493 15.6531 8.6435 15.493 8.54452L9.66564 4.95749C9.57605 4.90297 9.47399 4.875 9.37192 4.875C9.28087 4.875 9.18908 4.89795 9.10611 4.94242Z" fill="white"/>
</svg>
