<svg width="13" height="14" viewBox="0 0 13 14" fill="none" xmlns="http://www.w3.org/2000/svg">
<path d="M5.88738 9.50769C5.85596 9.47708 5.72163 9.36152 5.61113 9.25387C4.91617 8.62277 3.77867 6.97639 3.43146 6.11469C3.37567 5.98382 3.25758 5.65297 3.25 5.47619C3.25 5.30681 3.289 5.14533 3.36808 4.99125C3.47858 4.79917 3.65246 4.64509 3.85775 4.56066C4.00021 4.50631 4.4265 4.42188 4.43408 4.42188C4.90046 4.33745 5.65825 4.29102 6.49567 4.29102C7.29354 4.29102 8.02046 4.33745 8.49388 4.40658C8.50146 4.41449 9.03121 4.49892 9.21267 4.59127C9.54417 4.76065 9.75 5.09151 9.75 5.44559V5.47619C9.74188 5.70679 9.53604 6.19173 9.52846 6.19173C9.18071 7.007 8.099 8.61538 7.38021 9.26179C7.38021 9.26179 7.1955 9.44384 7.08013 9.52299C6.91438 9.64647 6.70908 9.70768 6.50379 9.70768C6.27467 9.70768 6.06125 9.63856 5.88738 9.50769Z" fill="white"/>
</svg>
