<svg width="20" height="21" viewBox="0 0 20 21" fill="none" xmlns="http://www.w3.org/2000/svg">
<path opacity="0.4" d="M16.1032 8.39014C16.1032 8.39014 15.6507 14.0026 15.3882 16.3668C15.2632 17.496 14.5657 18.1576 13.4232 18.1785C11.249 18.2176 9.07234 18.2201 6.89901 18.1743C5.79984 18.1518 5.11401 17.4818 4.99151 16.3726C4.72734 13.9876 4.27734 8.39014 4.27734 8.39014" stroke="white" stroke-width="1.5" stroke-linecap="round" stroke-linejoin="round"/>
<path d="M17.2567 5.69975H3.125" stroke="white" stroke-width="1.5" stroke-linecap="round" stroke-linejoin="round"/>
<path d="M14.5335 5.69974C13.8793 5.69974 13.316 5.23724 13.1877 4.5964L12.9852 3.58307C12.8602 3.11557 12.4368 2.79224 11.9543 2.79224H8.42682C7.94432 2.79224 7.52099 3.11557 7.39599 3.58307L7.19349 4.5964C7.06516 5.23724 6.50182 5.69974 5.84766 5.69974" stroke="white" stroke-width="1.5" stroke-linecap="round" stroke-linejoin="round"/>
</svg>
