<svg width="19" height="14" viewBox="0 0 19 14" fill="none" xmlns="http://www.w3.org/2000/svg">
<path fill-rule="evenodd" clip-rule="evenodd" d="M6.08537 7C6.08537 8.86667 7.61341 10.3855 9.5 10.3855C11.378 10.3855 12.9061 8.86667 12.9061 7C12.9061 5.12485 11.378 3.60606 9.5 3.60606C7.61341 3.60606 6.08537 5.12485 6.08537 7ZM14.5195 1.7903C16.0134 2.94424 17.2854 4.63273 18.1988 6.74545C18.2671 6.90667 18.2671 7.09333 18.1988 7.24606C16.372 11.4715 13.1195 14 9.5 14H9.49146C5.88049 14 2.62805 11.4715 0.80122 7.24606C0.732927 7.09333 0.732927 6.90667 0.80122 6.74545C2.62805 2.52 5.88049 0 9.49146 0H9.5C11.3098 0 13.0256 0.627879 14.5195 1.7903ZM9.50102 9.11086C10.6705 9.11086 11.6266 8.16056 11.6266 6.99813C11.6266 5.82722 10.6705 4.87692 9.50102 4.87692C9.39859 4.87692 9.29615 4.88541 9.20224 4.90238C9.1681 5.83571 8.39981 6.58238 7.45224 6.58238H7.40956C7.38395 6.71813 7.36688 6.85389 7.36688 6.99813C7.36688 8.16056 8.32298 9.11086 9.50102 9.11086Z" fill="white"/>
</svg>
