
<svg width="21" height="20" viewBox="0 0 21 20" fill="none" xmlns="http://www.w3.org/2000/svg">
<path fill-rule="evenodd" clip-rule="evenodd" d="M13.964 6.86136C13.964 8.81943 12.403 10.3895 10.4562 10.3895C8.50947 10.3895 6.94848 8.81943 6.94848 6.86136C6.94848 4.90254 8.50947 3.33398 10.4562 3.33398C12.403 3.33398 13.964 4.90254 13.964 6.86136ZM10.4562 16.6673C7.5969 16.6673 5.15544 16.214 5.15544 14.4008C5.15544 12.5868 7.58123 12.117 10.4562 12.117C13.3155 12.117 15.757 12.5703 15.757 14.3843C15.757 16.1975 13.3312 16.6673 10.4562 16.6673ZM15.4629 6.925C15.4629 7.92318 15.1652 8.85305 14.6429 9.62607C14.5892 9.70563 14.6369 9.81295 14.7317 9.82946C14.8623 9.85198 14.9973 9.86473 15.1346 9.86849C16.5038 9.90451 17.7328 9.01816 18.0723 7.68376C18.5752 5.70168 17.0985 3.92223 15.2182 3.92223C15.0137 3.92223 14.8183 3.944 14.628 3.98302C14.6019 3.98903 14.5743 4.00103 14.5593 4.0243C14.5414 4.05282 14.5549 4.09109 14.5728 4.11586C15.1376 4.91215 15.4629 5.8833 15.4629 6.925ZM17.7305 11.2611C18.6506 11.442 19.2557 11.8112 19.5064 12.3479C19.7183 12.7884 19.7183 13.2995 19.5064 13.7393C19.1229 14.5716 17.8865 14.8388 17.406 14.9078C17.3067 14.9228 17.2269 14.8365 17.2373 14.7367C17.4828 12.4304 15.5301 11.3369 15.0249 11.0855C15.0033 11.0742 14.9988 11.057 15.0011 11.0465C15.0026 11.039 15.0115 11.027 15.0279 11.0247C16.1211 11.0045 17.2963 11.1546 17.7305 11.2611ZM5.86296 9.86841C6.00025 9.86466 6.13456 9.85265 6.26589 9.82939C6.36065 9.81287 6.4084 9.70555 6.35468 9.626C5.83236 8.85298 5.53464 7.9231 5.53464 6.92493C5.53464 5.88323 5.85997 4.91207 6.42482 4.11579C6.44273 4.09102 6.45541 4.05274 6.43825 4.02422C6.42333 4.00171 6.39497 3.98895 6.3696 3.98295C6.17859 3.94392 5.98309 3.92216 5.77864 3.92216C3.89829 3.92216 2.42162 5.7016 2.92529 7.68369C3.2648 9.01809 4.49374 9.90444 5.86296 9.86841ZM5.99615 11.046C5.99838 11.0573 5.99391 11.0738 5.97302 11.0858C5.46711 11.3372 3.51439 12.4307 3.75988 14.7363C3.77032 14.8368 3.69123 14.9224 3.59199 14.9081C3.11146 14.8391 1.87506 14.5719 1.49152 13.7396C1.27887 13.299 1.27887 12.7887 1.49152 12.3482C1.74224 11.8115 2.34663 11.4423 3.26666 11.2607C3.70168 11.1549 4.87615 11.0048 5.97003 11.025C5.98645 11.0273 5.99465 11.0393 5.99615 11.046Z" fill="white"/>
</svg>
