<svg width="24" height="22" viewBox="0 0 24 22" fill="none" xmlns="http://www.w3.org/2000/svg">
<path d="M19.6055 0.394531C20.3086 1.09766 20.9297 1.85938 21.4688 2.67969C22.0156 3.5 22.4766 4.36328 22.8516 5.26953C23.2266 6.16797 23.5078 7.10156 23.6953 8.07031C23.8906 9.03125 23.9883 10.0078 23.9883 11C23.9883 11.9922 23.8906 12.9727 23.6953 13.9414C23.5078 14.9023 23.2266 15.8359 22.8516 16.7422C22.4766 17.6406 22.0156 18.5 21.4688 19.3203C20.9297 20.1406 20.3086 20.9023 19.6055 21.6055L18.5508 20.5508C19.1836 19.918 19.7422 19.2344 20.2266 18.5C20.7188 17.7578 21.1328 16.9805 21.4688 16.168C21.8047 15.3555 22.0586 14.5156 22.2305 13.6484C22.4102 12.7734 22.5 11.8906 22.5 11C22.5 10.1094 22.4102 9.23047 22.2305 8.36328C22.0586 7.48828 21.8047 6.64453 21.4688 5.83203C21.1328 5.01953 20.7188 4.24609 20.2266 3.51172C19.7422 2.76953 19.1836 2.08203 18.5508 1.44922L19.6055 0.394531ZM16.4297 3.57031C16.9219 4.0625 17.3555 4.59766 17.7305 5.17578C18.1133 5.74609 18.4336 6.34766 18.6914 6.98047C18.957 7.61328 19.1562 8.26953 19.2891 8.94922C19.4297 9.62891 19.5 10.3125 19.5 11C19.5 11.6953 19.4297 12.3828 19.2891 13.0625C19.1562 13.7344 18.957 14.3867 18.6914 15.0195C18.4336 15.6523 18.1133 16.2578 17.7305 16.8359C17.3555 17.4062 16.9219 17.9375 16.4297 18.4297L15.3633 17.3633C16.207 16.5195 16.8555 15.5469 17.3086 14.4453C17.7695 13.3438 18 12.1953 18 11C18 9.80469 17.7695 8.65625 17.3086 7.55469C16.8555 6.45312 16.207 5.48047 15.3633 4.63672L16.4297 3.57031ZM13.2422 6.75781C13.8047 7.32031 14.2383 7.96875 14.543 8.70312C14.8477 9.4375 15 10.2031 15 11C15 11.7969 14.8477 12.5625 14.543 13.2969C14.2383 14.0312 13.8047 14.6797 13.2422 15.2422L12.1875 14.1875C12.6094 13.7656 12.9336 13.2812 13.1602 12.7344C13.3867 12.1797 13.5 11.6016 13.5 11C13.5 10.3984 13.3867 9.82422 13.1602 9.27734C12.9336 8.72266 12.6094 8.23438 12.1875 7.8125L13.2422 6.75781ZM7.93359 2H9V20H7.93359L3.43359 15.5H0V6.5H3.43359L7.93359 2ZM7.5 4.56641L4.06641 8H1.5V14H4.06641L7.5 17.4336V4.56641Z" fill="#323130"/>
</svg>
