<svg width="26" height="27" viewBox="0 0 26 27" fill="none" xmlns="http://www.w3.org/2000/svg">
<path fill-rule="evenodd" clip-rule="evenodd" d="M21.0426 25.3731C23.229 25.3731 25 23.2028 25 20.5232V16.6626C23.5532 16.6626 22.388 15.2346 22.388 13.4615C22.388 11.6885 23.5532 10.2589 25 10.2589L24.9987 6.3968C24.9987 3.71722 23.2265 1.54688 21.0413 1.54688H4.9587C2.77347 1.54688 1.00125 3.71722 1.00125 6.3968L1 10.3847C2.44681 10.3847 3.61202 11.6885 3.61202 13.4615C3.61202 15.2346 2.44681 16.6626 1 16.6626V20.5232C1 23.2028 2.77096 25.3731 4.95745 25.3731H21.0426Z" stroke="#7E92A2" stroke-width="1.45" stroke-linecap="round" stroke-linejoin="round"/>
</svg>
