<svg width="20" height="20" viewBox="0 0 20 20" fill="none" xmlns="http://www.w3.org/2000/svg">
<path d="M17.9154 9.08268V3.41602C17.9154 2.16602 17.382 1.66602 16.057 1.66602H12.6904C11.3654 1.66602 10.832 2.16602 10.832 3.41602V9.08268C10.832 10.3327 11.3654 10.8327 12.6904 10.8327H16.057C17.382 10.8327 17.9154 10.3327 17.9154 9.08268Z" fill="#7E92A2"/>
<path d="M9.16536 10.916V16.5827C9.16536 17.8327 8.63203 18.3327 7.30703 18.3327H3.94036C2.61536 18.3327 2.08203 17.8327 2.08203 16.5827V10.916C2.08203 9.66602 2.61536 9.16602 3.94036 9.16602H7.30703C8.63203 9.16602 9.16536 9.66602 9.16536 10.916Z" fill="#7E92A2"/>
<path d="M17.9154 16.5827V14.2493C17.9154 12.9993 17.382 12.4993 16.057 12.4993H12.6904C11.3654 12.4993 10.832 12.9993 10.832 14.2493V16.5827C10.832 17.8327 11.3654 18.3327 12.6904 18.3327H16.057C17.382 18.3327 17.9154 17.8327 17.9154 16.5827Z" fill="#7E92A2"/>
<path d="M9.16536 5.74935V3.41602C9.16536 2.16602 8.63203 1.66602 7.30703 1.66602H3.94036C2.61536 1.66602 2.08203 2.16602 2.08203 3.41602V5.74935C2.08203 6.99935 2.61536 7.49935 3.94036 7.49935H7.30703C8.63203 7.49935 9.16536 6.99935 9.16536 5.74935Z" fill="#7E92A2"/>
</svg>
