<svg width="20" height="20" viewBox="0 0 20 20" fill="none" xmlns="http://www.w3.org/2000/svg">
<path d="M10.0013 13.1246C8.2763 13.1246 6.8763 11.7246 6.8763 9.99959C6.8763 8.27459 8.2763 6.87459 10.0013 6.87459C11.7263 6.87459 13.1263 8.27459 13.1263 9.99959C13.1263 11.7246 11.7263 13.1246 10.0013 13.1246ZM10.0013 8.12459C8.96797 8.12459 8.1263 8.96625 8.1263 9.99959C8.1263 11.0329 8.96797 11.8746 10.0013 11.8746C11.0346 11.8746 11.8763 11.0329 11.8763 9.99959C11.8763 8.96625 11.0346 8.12459 10.0013 8.12459Z" fill="#7E92A2"/>
<path d="M12.6763 18.4913C12.5013 18.4913 12.3263 18.4663 12.1513 18.4246C11.6346 18.2829 11.2013 17.9579 10.9263 17.4996L10.8263 17.3329C10.3346 16.4829 9.65964 16.4829 9.16797 17.3329L9.0763 17.4913C8.8013 17.9579 8.36797 18.2913 7.8513 18.4246C7.3263 18.5663 6.78464 18.4913 6.3263 18.2163L4.89297 17.3913C4.38464 17.0996 4.01797 16.6246 3.85964 16.0496C3.70964 15.4746 3.78464 14.8829 4.0763 14.3746C4.31797 13.9496 4.38464 13.5663 4.24297 13.3246C4.1013 13.0829 3.74297 12.9413 3.2513 12.9413C2.03464 12.9413 1.04297 11.9496 1.04297 10.7329V9.26625C1.04297 8.04959 2.03464 7.05792 3.2513 7.05792C3.74297 7.05792 4.1013 6.91625 4.24297 6.67459C4.38464 6.43292 4.3263 6.04959 4.0763 5.62459C3.78464 5.11625 3.70964 4.51625 3.85964 3.94959C4.00964 3.37459 4.3763 2.89959 4.89297 2.60792L6.33464 1.78292C7.2763 1.22459 8.51797 1.54959 9.08464 2.50792L9.18464 2.67459C9.6763 3.52459 10.3513 3.52459 10.843 2.67459L10.9346 2.51625C11.5013 1.54959 12.743 1.22459 13.693 1.79125L15.1263 2.61625C15.6346 2.90792 16.0013 3.38292 16.1596 3.95792C16.3096 4.53292 16.2346 5.12459 15.943 5.63292C15.7013 6.05792 15.6346 6.44126 15.7763 6.68292C15.918 6.92459 16.2763 7.06625 16.768 7.06625C17.9846 7.06625 18.9763 8.05792 18.9763 9.27459V10.7413C18.9763 11.9579 17.9846 12.9496 16.768 12.9496C16.2763 12.9496 15.918 13.0913 15.7763 13.3329C15.6346 13.5746 15.693 13.9579 15.943 14.3829C16.2346 14.8913 16.318 15.4913 16.1596 16.0579C16.0096 16.6329 15.643 17.1079 15.1263 17.3996L13.6846 18.2246C13.368 18.3996 13.0263 18.4913 12.6763 18.4913ZM10.0013 15.4079C10.743 15.4079 11.4346 15.8746 11.9096 16.6996L12.0013 16.8579C12.1013 17.0329 12.268 17.1579 12.468 17.2079C12.668 17.2579 12.868 17.2329 13.0346 17.1329L14.4763 16.2996C14.693 16.1746 14.8596 15.9663 14.9263 15.7163C14.993 15.4663 14.9596 15.2079 14.8346 14.9913C14.3596 14.1746 14.3013 13.3329 14.668 12.6913C15.0346 12.0496 15.793 11.6829 16.743 11.6829C17.2763 11.6829 17.7013 11.2579 17.7013 10.7246V9.25792C17.7013 8.73292 17.2763 8.29959 16.743 8.29959C15.793 8.29959 15.0346 7.93292 14.668 7.29125C14.3013 6.64959 14.3596 5.80792 14.8346 4.99125C14.9596 4.77459 14.993 4.51625 14.9263 4.26625C14.8596 4.01625 14.7013 3.81625 14.4846 3.68292L13.043 2.85792C12.6846 2.64125 12.2096 2.76625 11.993 3.13292L11.9013 3.29125C11.4263 4.11625 10.7346 4.58292 9.99297 4.58292C9.2513 4.58292 8.55964 4.11625 8.08464 3.29125L7.99297 3.12459C7.78464 2.77459 7.31797 2.64959 6.95964 2.85792L5.51797 3.69125C5.3013 3.81625 5.13464 4.02459 5.06797 4.27459C5.0013 4.52459 5.03464 4.78292 5.15964 4.99959C5.63464 5.81625 5.69297 6.65792 5.3263 7.29959C4.95964 7.94126 4.2013 8.30792 3.2513 8.30792C2.71797 8.30792 2.29297 8.73292 2.29297 9.26625V10.7329C2.29297 11.2579 2.71797 11.6913 3.2513 11.6913C4.2013 11.6913 4.95964 12.0579 5.3263 12.6996C5.69297 13.3413 5.63464 14.1829 5.15964 14.9996C5.03464 15.2163 5.0013 15.4746 5.06797 15.7246C5.13464 15.9746 5.29297 16.1746 5.50964 16.3079L6.9513 17.1329C7.1263 17.2413 7.33464 17.2663 7.5263 17.2163C7.7263 17.1663 7.89297 17.0329 8.0013 16.8579L8.09297 16.6996C8.56797 15.8829 9.25964 15.4079 10.0013 15.4079Z" fill="#7E92A2"/>
</svg>
