<svg width="15" height="18" viewBox="0 0 15 18" fill="none" xmlns="http://www.w3.org/2000/svg">
<path fill-rule="evenodd" clip-rule="evenodd" d="M11.1757 1.30702L11.1766 1.93171C13.4721 2.11162 14.9885 3.67583 14.9909 6.07463L15 13.0961C15.0033 15.7115 13.3602 17.3207 10.7265 17.3248L4.29324 17.3332C1.67599 17.3365 0.0123471 15.689 0.00905605 13.0661L5.54146e-06 6.1271C-0.00328555 3.71248 1.45961 2.15243 3.75514 1.9417L3.75432 1.31701C3.7535 0.95053 4.02501 0.674835 4.38703 0.674835C4.74905 0.674002 5.02057 0.948864 5.02139 1.31535L5.02221 1.89839L9.90949 1.89173L9.90866 1.30868C9.90784 0.942201 10.1794 0.667339 10.5414 0.666506C10.8952 0.665673 11.1749 0.940535 11.1757 1.30702ZM1.2679 6.38447L13.7247 6.36782V6.0763C13.6893 4.28553 12.7908 3.346 11.1782 3.20607L11.179 3.84741C11.179 4.20557 10.9001 4.48959 10.5463 4.48959C10.1843 4.49042 9.91195 4.20723 9.91195 3.84908L9.91113 3.17442L5.02386 3.18108L5.02468 3.85491C5.02468 4.2139 4.75399 4.49709 4.39197 4.49709C4.02995 4.49792 3.75761 4.21556 3.75761 3.85657L3.75679 3.21523C2.15238 3.37598 1.26461 4.31884 1.26708 6.12544L1.2679 6.38447ZM10.1999 10.1701V10.1792C10.2082 10.5624 10.5208 10.8531 10.9001 10.8447C11.2704 10.8356 11.5657 10.5182 11.5575 10.1351C11.5402 9.76861 11.2432 9.4696 10.8738 9.47043C10.4953 9.47876 10.1991 9.78694 10.1999 10.1701ZM10.8795 13.9099C10.5011 13.9015 10.1958 13.5859 10.195 13.2027C10.1868 12.8196 10.4904 12.5022 10.8688 12.4931H10.8771C11.2638 12.4931 11.5772 12.8088 11.5772 13.2002C11.5781 13.5917 11.2654 13.909 10.8795 13.9099ZM6.8101 10.1834C6.82655 10.5665 7.14003 10.8656 7.51851 10.8489C7.88875 10.8314 8.18413 10.5149 8.16768 10.1318C8.15862 9.75695 7.8542 9.46543 7.48395 9.46626C7.10547 9.48292 6.80928 9.80026 6.8101 10.1834ZM7.5218 13.8724C7.14332 13.8891 6.83067 13.59 6.81339 13.2069C6.81339 12.8238 7.10877 12.5072 7.48724 12.4898C7.85749 12.4889 8.16274 12.7804 8.17097 13.1544C8.18824 13.5384 7.89205 13.8549 7.5218 13.8724ZM3.42027 10.2126C3.43673 10.5957 3.7502 10.8955 4.12868 10.8781C4.49893 10.8614 4.7943 10.5441 4.77703 10.1609C4.7688 9.78611 4.46437 9.49458 4.0933 9.49542C3.71483 9.51208 3.41945 9.82942 3.42027 10.2126ZM4.13197 13.8766C3.7535 13.894 3.44084 13.5942 3.42356 13.2111C3.42274 12.8279 3.71894 12.5106 4.09741 12.4939C4.46766 12.4931 4.77291 12.7846 4.78114 13.1594C4.79842 13.5426 4.50304 13.8599 4.13197 13.8766Z" fill="white"/>
</svg>
