<svg width="20" height="20" viewBox="0 0 20 20" fill="none" xmlns="http://www.w3.org/2000/svg">
<path opacity="0.4" d="M16.1041 7.89062C16.1041 7.89062 15.6516 13.5031 15.3891 15.8673C15.2641 16.9965 14.5666 17.6581 13.4241 17.679C11.2499 17.7181 9.07326 17.7206 6.89993 17.6748C5.80076 17.6523 5.11493 16.9823 4.99243 15.8731C4.72826 13.4881 4.27826 7.89062 4.27826 7.89062" stroke="#DF0404" stroke-width="1.5" stroke-linecap="round" stroke-linejoin="round"/>
<path d="M17.2569 5.19987H3.12518" stroke="#DF0404" stroke-width="1.5" stroke-linecap="round" stroke-linejoin="round"/>
<path d="M14.5339 5.19998C13.8797 5.19998 13.3164 4.73748 13.188 4.09665L12.9855 3.08331C12.8605 2.61581 12.4372 2.29248 11.9547 2.29248H8.42719C7.94469 2.29248 7.52136 2.61581 7.39636 3.08331L7.19386 4.09665C7.06552 4.73748 6.50219 5.19998 5.84802 5.19998" stroke="#DF0404" stroke-width="1.5" stroke-linecap="round" stroke-linejoin="round"/>
</svg>
