<svg width="19" height="14" viewBox="0 0 19 14" fill="none" xmlns="http://www.w3.org/2000/svg">
<path fill-rule="evenodd" clip-rule="evenodd" d="M12.9649 3.86087C12.9649 5.81894 11.404 7.389 9.4572 7.389C7.51044 7.389 5.94946 5.81894 5.94946 3.86087C5.94946 1.90205 7.51044 0.333496 9.4572 0.333496C11.404 0.333496 12.9649 1.90205 12.9649 3.86087ZM9.4572 13.6668C6.59788 13.6668 4.15641 13.2135 4.15641 11.4003C4.15641 9.58633 6.58221 9.11651 9.4572 9.11651C12.3165 9.11651 14.758 9.56982 14.758 11.3838C14.758 13.197 12.3322 13.6668 9.4572 13.6668ZM14.4639 3.92452C14.4639 4.92269 14.1662 5.85256 13.6439 6.62559C13.5902 6.70514 13.6379 6.81246 13.7327 6.82897C13.8633 6.85149 13.9983 6.86425 14.1356 6.868C15.5048 6.90402 16.7338 6.01768 17.0733 4.68328C17.5762 2.70119 16.0995 0.921742 14.2192 0.921742C14.0147 0.921742 13.8192 0.943507 13.629 0.982533C13.6028 0.988537 13.5752 1.00055 13.5603 1.02381C13.5424 1.05233 13.5558 1.09061 13.5737 1.11537C14.1386 1.91166 14.4639 2.88281 14.4639 3.92452ZM16.7315 8.26064C17.6516 8.44151 18.2567 8.81076 18.5074 9.34737C18.7193 9.78792 18.7193 10.299 18.5074 10.7388C18.1239 11.5711 16.8875 11.8383 16.4069 11.9073C16.3077 11.9224 16.2279 11.836 16.2383 11.7362C16.4838 9.42992 14.5311 8.33644 14.0259 8.08502C14.0043 8.07376 13.9998 8.0565 14.002 8.04599C14.0035 8.03849 14.0125 8.02648 14.0289 8.02423C15.122 8.00396 16.2973 8.15407 16.7315 8.26064ZM4.86393 6.86792C5.00123 6.86417 5.13554 6.85216 5.26686 6.8289C5.36163 6.81239 5.40938 6.70506 5.35566 6.62551C4.83334 5.85249 4.53562 4.92261 4.53562 3.92444C4.53562 2.88274 4.86095 1.91158 5.4258 1.1153C5.44371 1.09053 5.45639 1.05226 5.43923 1.02374C5.4243 1.00122 5.39595 0.988462 5.37058 0.982458C5.17956 0.943432 4.98407 0.921667 4.77961 0.921667C2.89927 0.921667 1.4226 2.70112 1.92627 4.6832C2.26577 6.0176 3.49471 6.90395 4.86393 6.86792ZM4.99712 8.04554C4.99936 8.0568 4.99488 8.07331 4.97399 8.08532C4.46809 8.33674 2.51537 9.43023 2.76085 11.7358C2.7713 11.8363 2.69221 11.9219 2.59297 11.9076C2.11243 11.8386 0.876032 11.5714 0.492501 10.7391C0.279843 10.2986 0.279843 9.78822 0.492501 9.34767C0.743214 8.81106 1.34761 8.44181 2.26764 8.26019C2.70265 8.15437 3.87712 8.00426 4.97101 8.02453C4.98742 8.02678 4.99563 8.03879 4.99712 8.04554Z" fill="white"/>
</svg>
