<svg width="32" height="32" viewBox="0 0 32 32" fill="none" xmlns="http://www.w3.org/2000/svg">
<path d="M27 5H23C22.4698 5.00061 21.9614 5.21151 21.5865 5.58646C21.2115 5.9614 21.0006 6.46975 21 7V11H17V3C16.9995 2.46973 16.7886 1.96133 16.4136 1.58637C16.0387 1.21141 15.5303 1.00053 15 1H11C10.4697 1.00053 9.96133 1.21141 9.58637 1.58637C9.21141 1.96133 9.00053 2.46973 9 3V11H5C4.46973 11.0005 3.96133 11.2114 3.58637 11.5864C3.21141 11.9613 3.00053 12.4697 3 13V29C3.00061 29.5302 3.21151 30.0386 3.58646 30.4135C3.9614 30.7885 4.46975 30.9994 5 31H27C27.5302 30.9993 28.0385 30.7884 28.4135 30.4135C28.7884 30.0385 28.9993 29.5302 29 29V7C28.9994 6.46975 28.7885 5.9614 28.4135 5.58646C28.0386 5.21151 27.5302 5.00061 27 5ZM9 29H5L4.99854 13H9V29ZM15 29H11V13L10.9991 12.9911L10.9985 3H15V29ZM21 29H17V13H21V29ZM27 29H23V13L22.9993 12.993L22.999 7H27V29Z" fill="#222222"/>
</svg>
