<svg width="32" height="32" viewBox="0 0 32 32" fill="none" xmlns="http://www.w3.org/2000/svg">
<path d="M16 27C12.8464 26.9903 9.76998 26.0236 7.17771 24.2276C4.58544 22.4316 2.59945 19.891 1.48242 16.9418L1.37256 16.648L1.50537 16.1274C2.35887 12.9365 4.24148 10.1163 6.8612 8.10441C9.48092 6.0925 12.6913 5.00128 15.9945 5C19.2976 4.99872 22.5089 6.08746 25.1301 8.09734C27.7514 10.1072 29.6362 12.9259 30.4922 16.1162L30.6269 16.6489L30.5176 16.9419C29.4003 19.8909 27.4142 22.4314 24.822 24.2273C22.2298 26.0232 19.1535 26.9901 16 27ZM3.46826 16.5302C4.47342 19.0315 6.20407 21.1747 8.4375 22.6841C10.6709 24.1935 13.3049 25.0001 16.0006 25C18.6962 24.9999 21.3302 24.1931 23.5635 22.6835C25.7968 21.1739 27.5273 19.0305 28.5323 16.5292C27.7723 13.7892 26.1354 11.3737 23.8719 9.65265C21.6085 7.93158 18.8433 6.99976 15.9999 6.99988C13.1564 6.99999 10.3914 7.93202 8.12806 9.65328C5.86475 11.3745 4.22795 13.7901 3.46826 16.5302ZM16 21C15.0111 21 14.0444 20.7067 13.2221 20.1573C12.3999 19.6079 11.759 18.827 11.3806 17.9134C11.0022 16.9997 10.9031 15.9944 11.0961 15.0245C11.289 14.0546 11.7652 13.1637 12.4645 12.4644C13.1637 11.7652 14.0546 11.2889 15.0245 11.096C15.9945 10.9031 16.9998 11.0021 17.9134 11.3806C18.827 11.759 19.6079 12.3999 20.1573 13.2221C20.7068 14.0443 21 15.011 21 16C20.9984 17.3256 20.4712 18.5964 19.5338 19.5338C18.5965 20.4711 17.3256 20.9984 16 21ZM16 12.9999C15.4067 12.9999 14.8266 13.1759 14.3333 13.5055C13.8399 13.8352 13.4554 14.3037 13.2284 14.8519C13.0013 15.4001 12.9419 16.0033 13.0576 16.5852C13.1734 17.1672 13.4591 17.7017 13.8787 18.1213C14.2982 18.5408 14.8328 18.8266 15.4147 18.9423C15.9967 19.0581 16.5999 18.9987 17.148 18.7716C17.6962 18.5445 18.1648 18.16 18.4944 17.6667C18.8241 17.1733 19 16.5933 19 16C18.9991 15.2046 18.6828 14.442 18.1204 13.8796C17.5579 13.3172 16.7954 13.0008 16 12.9999Z" fill="#222222"/>
</svg>
