
<svg width="42" height="42" viewBox="0 0 42 42" fill="none" xmlns="http://www.w3.org/2000/svg">
<path d="M16.0305 19.0225C15.8555 19.005 15.6455 19.005 15.453 19.0225C11.288 18.8825 7.98047 15.47 7.98047 11.27C7.98047 6.9825 11.4455 3.5 15.7505 3.5C20.038 3.5 23.5205 6.9825 23.5205 11.27C23.503 15.47 20.1955 18.8825 16.0305 19.0225Z" stroke="#00AC4F" stroke-width="2.625" stroke-linecap="round" stroke-linejoin="round"/>
<path d="M28.7168 7C32.1118 7 34.8418 9.7475 34.8418 13.125C34.8418 16.4325 32.2168 19.1275 28.9443 19.25C28.8043 19.2325 28.6468 19.2325 28.4893 19.25" stroke="#00AC4F" stroke-width="2.625" stroke-linecap="round" stroke-linejoin="round"/>
<path d="M7.28074 25.48C3.04574 28.315 3.04574 32.935 7.28074 35.7525C12.0932 38.9725 19.9857 38.9725 24.7982 35.7525C29.0332 32.9175 29.0332 28.2975 24.7982 25.48C20.0032 22.2775 12.1107 22.2775 7.28074 25.48Z" stroke="#00AC4F" stroke-width="2.625" stroke-linecap="round" stroke-linejoin="round"/>
<path d="M32.0947 35C33.3547 34.7375 34.5447 34.23 35.5247 33.4775C38.2547 31.43 38.2547 28.0525 35.5247 26.005C34.5622 25.27 33.3897 24.78 32.1472 24.5" stroke="#00AC4F" stroke-width="2.625" stroke-linecap="round" stroke-linejoin="round"/>
</svg>
