<svg width="33" height="35" viewBox="0 0 33 35" fill="none" xmlns="http://www.w3.org/2000/svg">
<path d="M16 0.796875L16.555 1.16688C20.398 3.72888 24.208 4.99888 28 4.99888H29V17.4989C29 25.5729 23.21 30.9989 16 30.9989C8.79 30.9989 3 25.5729 3 17.4989V4.99888H4C7.792 4.99888 11.602 3.72888 15.445 1.16688L16 0.796875ZM15 3.80188C11.8 5.66788 8.582 6.72188 5.352 6.95088L5 6.97088V17.4989C5 24.0569 9.347 28.4899 15 28.9579V3.80188ZM17 3.80188V28.9589C22.654 28.4909 27 24.0579 27 17.4999V6.97088L26.648 6.95088C23.418 6.72088 20.2 5.66888 17.001 3.80288L17 3.80188Z" fill="#222222"/>
</svg>
