<svg width="20" height="20" viewBox="0 0 20 20" fill="none" xmlns="http://www.w3.org/2000/svg">
<g opacity="0.5">
<path fill-rule="evenodd" clip-rule="evenodd" d="M13.6757 2.30714L13.6766 2.93183C15.9721 3.11174 17.4885 4.67595 17.4909 7.07475L17.5 14.0962C17.5033 16.7116 15.8602 18.3208 13.2265 18.325L6.79324 18.3333C4.17599 18.3366 2.51235 16.6891 2.50906 14.0663L2.50001 7.12723C2.49671 4.7126 3.95961 3.15255 6.25514 2.94182L6.25432 2.31714C6.2535 1.95065 6.52501 1.67496 6.88703 1.67496C7.24905 1.67412 7.52057 1.94899 7.52139 2.31547L7.52221 2.89851L12.4095 2.89185L12.4087 2.30881C12.4078 1.94232 12.6794 1.66746 13.0414 1.66663C13.3952 1.66579 13.6749 1.94066 13.6757 2.30714ZM3.7679 7.3846L16.2247 7.36794V7.07642C16.1893 5.28565 15.2908 4.34612 13.6782 4.20619L13.679 4.84753C13.679 5.20569 13.4001 5.48971 13.0463 5.48971C12.6843 5.49055 12.412 5.20735 12.412 4.8492L12.4111 4.17454L7.52386 4.1812L7.52468 4.85503C7.52468 5.21402 7.25399 5.49721 6.89197 5.49721C6.52995 5.49804 6.25761 5.21568 6.25761 4.8567L6.25679 4.21535C4.65238 4.3761 3.76461 5.31896 3.76708 7.12556L3.7679 7.3846ZM12.6999 11.1702V11.1794C12.7082 11.5625 13.0208 11.8532 13.4001 11.8449C13.7704 11.8357 14.0657 11.5184 14.0575 11.1352C14.0402 10.7687 13.7432 10.4697 13.3738 10.4706C12.9953 10.4789 12.6991 10.7871 12.6999 11.1702ZM13.3795 14.91C13.0011 14.9017 12.6958 14.586 12.695 14.2028C12.6868 13.8197 12.9904 13.5024 13.3688 13.4932H13.3771C13.7638 13.4932 14.0772 13.8089 14.0772 14.2004C14.0781 14.5918 13.7654 14.9092 13.3795 14.91ZM9.3101 11.1835C9.32655 11.5667 9.64003 11.8657 10.0185 11.849C10.3888 11.8315 10.6841 11.515 10.6677 11.1319C10.6586 10.7571 10.3542 10.4656 9.98395 10.4664C9.60547 10.483 9.30928 10.8004 9.3101 11.1835ZM10.0218 14.8725C9.64332 14.8892 9.33067 14.5902 9.31339 14.207C9.31339 13.8239 9.60877 13.5074 9.98724 13.4899C10.3575 13.489 10.6627 13.7806 10.671 14.1545C10.6882 14.5385 10.392 14.855 10.0218 14.8725ZM5.92027 11.2127C5.93673 11.5958 6.2502 11.8957 6.62868 11.8782C6.99893 11.8615 7.2943 11.5442 7.27703 11.161C7.2688 10.7862 6.96437 10.4947 6.5933 10.4955C6.21483 10.5122 5.91945 10.8295 5.92027 11.2127ZM6.63197 14.8767C6.2535 14.8942 5.94084 14.5943 5.92356 14.2112C5.92274 13.828 6.21894 13.5107 6.59741 13.494C6.96766 13.4932 7.27291 13.7847 7.28114 14.1595C7.29842 14.5427 7.00304 14.86 6.63197 14.8767Z" fill="#3D3C42"/>
</g>
</svg>
